<?xml version="1.0" encoding="utf-8"?>
<!-- Generator: Adobe Illustrator 26.0.0, SVG Export Plug-In . SVG Version: 6.00 Build 0)  -->
<svg version="1.1" id="Layer_1" xmlns="http://www.w3.org/2000/svg" xmlns:xlink="http://www.w3.org/1999/xlink" x="0px" y="0px"
	 viewBox="0 0 166.5 233.1" style="enable-background:new 0 0 166.5 233.1;" xml:space="preserve">
<style type="text/css">
	.st0{fill:#FFFFFF;}
	.st1{fill:#65A7DD;}
</style>
<path class="st0" d="M6.1,0.1h154.4c3.3,0,5.9,2.7,5.9,5.9v221c0,3.3-2.7,5.9-5.9,5.9H6.1c-3.3,0-5.9-2.7-5.9-5.9V6.1
	C0.1,2.8,2.8,0.1,6.1,0.1z"/>
<path class="st1" d="M160.4,233.1H6.1c-3.3,0-6-2.7-6-6V6.1c0-3.3,2.7-6,6-6.1h154.4c3.3,0,6,2.7,6,6.1V227
	C166.4,230.3,163.8,233,160.4,233.1z M6.1,0.2c-3.2,0-5.8,2.6-5.8,5.8V227c0,3.2,2.6,5.8,5.8,5.8h154.4c3.2,0,5.8-2.6,5.8-5.8V6.1
	c0-3.2-2.6-5.8-5.8-5.8H6.1z"/>
<circle class="st0" cx="148.5" cy="18.5" r="0.6"/>
<circle class="st0" cx="121.4" cy="18.5" r="0.6"/>
<circle class="st0" cx="96.5" cy="18.5" r="0.6"/>
<circle class="st0" cx="71.4" cy="18.7" r="0.6"/>
<circle class="st0" cx="148.5" cy="39.6" r="0.6"/>
<circle class="st0" cx="148.5" cy="58.9" r="0.6"/>
<circle class="st0" cx="148.5" cy="79.1" r="0.6"/>
<circle class="st0" cx="148.5" cy="91.9" r="0.6"/>
<circle class="st0" cx="148.5" cy="104.7" r="0.6"/>
<circle class="st0" cx="18.3" cy="19" r="0.6"/>
<path class="st0" d="M46.3,18.7c0,0.3-0.3,0.6-0.6,0.6c-0.3,0-0.6-0.3-0.6-0.6c0-0.3,0.3-0.6,0.6-0.6C46,18.1,46.3,18.3,46.3,18.7
	C46.3,18.6,46.3,18.7,46.3,18.7z"/>
<circle class="st0" cx="18.3" cy="39.2" r="0.6"/>
<circle class="st0" cx="18.3" cy="59" r="0.6"/>
<circle class="st0" cx="18.3" cy="79" r="0.6"/>
<circle class="st0" cx="18.3" cy="91.9" r="0.6"/>
<circle class="st0" cx="18.3" cy="105.3" r="0.6"/>
<circle class="st0" cx="18.3" cy="118.2" r="0.6"/>
<circle class="st0" cx="18.3" cy="131.1" r="0.6"/>
<circle class="st0" cx="18.3" cy="144.5" r="0.6"/>
<circle class="st0" cx="18.3" cy="157.9" r="0.6"/>
<circle class="st0" cx="18.3" cy="169.9" r="0.6"/>
<path class="st0" d="M18.9,183.4c0,0.3-0.3,0.6-0.6,0.6c0,0,0,0,0,0c-0.3,0-0.6-0.3-0.6-0.6c0-0.3,0.3-0.6,0.6-0.6
	S18.9,183,18.9,183.4C18.9,183.3,18.9,183.3,18.9,183.4z"/>
<circle class="st0" cx="18.3" cy="196.4" r="0.6"/>
<circle class="st0" cx="18.5" cy="215.6" r="0.6"/>
<circle class="st0" cx="39.1" cy="216.1" r="0.6"/>
<path class="st0" d="M66.1,216.1c0,0.3-0.3,0.6-0.6,0.6c-0.3,0-0.6-0.3-0.6-0.6l0,0c0-0.3,0.2-0.6,0.5-0.6c0,0,0,0,0,0
	C65.8,215.6,66.1,215.8,66.1,216.1L66.1,216.1z"/>
<circle class="st0" cx="91.9" cy="216.1" r="0.6"/>
<circle class="st0" cx="117.6" cy="216.1" r="0.6"/>
<circle class="st0" cx="148.5" cy="117.9" r="0.6"/>
<circle class="st0" cx="148.5" cy="130.2" r="0.6"/>
<circle class="st0" cx="148.5" cy="143.5" r="0.6"/>
<circle class="st0" cx="148.5" cy="156.6" r="0.6"/>
<circle class="st0" cx="148.5" cy="169.4" r="0.6"/>
<circle class="st0" cx="148.5" cy="181.9" r="0.6"/>
<circle class="st0" cx="148.5" cy="194.8" r="0.6"/>
<circle class="st0" cx="148.5" cy="214.3" r="0.6"/>
</svg>
